General
Complete name                    : E:Tosh.0 - S02E11 - The Look at That Horse GuyTosh.0 - S02E11 - The Look at That Horse Guy.avi
Format                           : DivX
Format/Info                      : Hack of AVI
File size                        : 231 MiB
Duration                         : 20mn 59s
Overall bit rate                 : 1 540 Kbps

Video
ID                               : 0
Format                           : MPEG-4 Visual
Format settings, BVOP            : No
Format settings, QPel            : No
Format settings, GMC             : No warppoints
Format settings, Matrix          : Default (H.263)
Codec ID                         : DX50
Codec ID/Hint                    : DivX 5
Duration                         : 20mn 59s
Bit rate                         : 1 401 Kbps
Width                            : 720 pixels
Height                           : 480 pixels
Display aspect ratio             : 3:2
Frame rate                       : 29.970 fps
Standard                         : NTSC
Resolution                       : 8 bits
Colorimetry                      : 4:2:0
Scan type                        : Progressive
Bits/(Pixel*Frame)               : 0.135
Stream size                      : 210 MiB (91%)
Title                            : Video
Writing library                  : DivX 6.6.1.4

Audio
ID                               : 1
Format                           : MPEG Audio
Format version                   : Version 1
Format profile                   : Layer 3
Mode                             : Joint stereo
Format_Settings_ModeExtension    : MS Stereo
Codec ID                         : 55
Codec ID/Hint                    : MP3
Duration                         : 20mn 59s
Bit rate mode                    : Constant
Bit rate                         : 128 Kbps
Channel(s)                       : 2 channels
Sampling rate                    : 48.0 KHz
Stream size                      : 19.2 MiB (8%)
Alignment                        : Split accross interleaves
Interleave, duration             : 33 ms (1.00 video frame)
Interleave, preload duration     : 500 ms
Title                            : Audio
Writing library                  : LAME3.96

